<svg width="20" height="14" viewBox="0 0 20 14" fill="none" xmlns="http://www.w3.org/2000/svg">
<path d="M19.83 6.86L18.38 10.97C18.1991 11.4841 17.8753 11.9359 17.4467 12.2724C17.018 12.609 16.5023 12.8163 15.96 12.87L8.01 13.64C7.91 13.65 7.81 13.65 7.71 13.65C7.11148 13.6476 6.52864 13.4584 6.04281 13.1089C5.55699 12.7593 5.19242 12.2667 5 11.7L2.39 4.03V4.02L1.72 2.19C1.64899 1.98914 1.51772 1.81509 1.34412 1.6916C1.17052 1.56811 0.96304 1.5012 0.75 1.5V0C1.27004 0.000872821 1.77726 0.16154 2.20296 0.460246C2.62866 0.758952 2.95228 1.18127 3.13 1.67L3.63 3.03H17.12C17.5796 3.03005 18.0324 3.14032 18.4406 3.35155C18.8488 3.56278 19.2003 3.86881 19.4658 4.24397C19.7312 4.61913 19.9028 5.05248 19.9662 5.50766C20.0296 5.96285 19.9829 6.42659 19.83 6.86Z" fill="white"/>
</svg>
