<svg width="46" height="32" viewBox="0 0 46 32" fill="none" xmlns="http://www.w3.org/2000/svg">
<path d="M45.7199 17.7787C45.6613 25.6796 39.22 32.0428 31.3191 32.0009C30.2865 32.0009 29.5664 30.9795 29.9097 30.0054C31.3721 25.875 32.0754 21.4849 31.9721 17.0977C31.9582 16.4865 31.2437 16.573 31.1628 16.9303L29.8762 23.1818C29.7841 23.6283 29.3683 23.9437 28.9134 23.8879C28.4584 23.8432 28.1124 23.4609 28.1124 23.0032L28.0928 14.4408C28.0928 14.1841 27.8807 13.9747 27.624 13.9747C27.3868 13.9747 27.1886 14.1534 27.1607 14.3878L26.2732 21.9957C26.2202 22.4478 25.8406 22.7855 25.3885 22.7855C25.3857 22.7855 25.3857 22.7855 25.3829 22.7855C24.928 22.7827 24.5485 22.4366 24.501 21.9845L23.5912 13.1152C23.5521 12.7244 22.8739 12.73 22.8404 13.1207L22.1706 20.9435C22.1344 21.3705 21.7967 21.711 21.3697 21.7529C20.9482 21.8087 20.5464 21.5296 20.4264 21.1166L18.6765 15.1581C18.6235 14.9739 18.4504 14.8567 18.2579 14.879C18.043 14.9013 17.8923 15.0855 17.909 15.3004L18.576 23.4469C18.6095 23.8349 18.3834 24.2005 18.0206 24.3456C17.6578 24.4907 17.242 24.3847 16.9964 24.0804L15.4642 22.191C15.1628 21.8199 14.6297 21.7333 14.2251 21.9957C13.8148 22.258 13.6781 22.7855 13.9013 23.2181L16.734 29.9217C17.1499 30.9097 16.427 32.0009 15.3554 32.0009H10.9123C4.91754 32.026 0.0363261 27.1923 4.48653e-05 21.1975C-0.00832772 18.3229 1.15546 15.5683 3.22349 13.5701C4.6859 12.116 6.53345 11.1141 8.54566 10.6815C8.87777 7.97439 10.1113 5.45704 12.0538 3.54251C16.882 -1.17405 24.5903 -1.17963 29.4269 3.52855L29.5692 3.67089C35.5696 2.86433 41.422 5.94544 44.1543 11.3458C45.1897 13.3328 45.7255 15.5404 45.7199 17.7787Z" fill="white"/>
</svg>
